# xmcd
#
# Track frame offsets: 
#        150
#        16125
#        36375
#        54000
#        73162
#        89400
#        107325
#        128587
#        147525
#        166237
#        188775
#        209625
#        224925
#
# Disc length: 3267 seconds
#
# Revision: 0
# Processed by: cddbd v1.5.1PL0 Copyright (c) Steve Scherf et al.
# Submitted via: ExactAudioCopy v0.95a5
#
DISCID=c10cc10d
DTITLE=Various Artist - Here Comes Another Christmas... Greetings From The Sa
DTITLE=lt City
DYEAR=1993
DGENRE=Christmas/Holiday
TTITLE0=Gary Frenay With Lil' George - Santa Man
TTITLE1=Austin Jimmy Murphy and The Blues Kings - Sweet Christmas Love
TTITLE2=Ronnie D With Kim Lembo - Under My Tree
TTITLE3=Joe Whiting and Loren Barrigar - Christmas (Ain't Like It Used T
TTITLE3=o Be)
TTITLE4=Built For Comfort Blues Band - Back Door Santa
TTITLE5=Mark Doyle - The Christmas Song
TTITLE6=Z-Bones - Here Comes Another Christmas
TTITLE7=Muddpuppies - Silent Night, Lonely Night
TTITLE8=Delta Rays - Merry, Merry Christmas
TTITLE9=Tony, James and Jon Notarthomas - This Must Be Christmas Time
TTITLE10=Hamell On Trial - Santa, Can Ya...
TTITLE11=Laronde, Mulhauser and Tiffault - Blue Christmas
TTITLE12=Tom Townsley and The Backsliders - Resolution Blues
EXTD=
EXTT0=
EXTT1=
EXTT2=
EXTT3=
EXTT4=
EXTT5=
EXTT6=
EXTT7=
EXTT8=
EXTT9=
EXTT10=
EXTT11=
EXTT12=
PLAYORDER=
